<?xml version="1.0" encoding="utf-8"?>
<!-- Generator: Adobe Illustrator 23.0.3, SVG Export Plug-In . SVG Version: 6.00 Build 0)  -->
<svg version="1.1" id="Capa_1"
	xmlns="http://www.w3.org/2000/svg"
	xmlns:xlink="http://www.w3.org/1999/xlink" x="0px" y="0px" viewBox="0 0 187 187" style="enable-background:new 0 0 187 187;" xml:space="preserve">
	<style type="text/css">
	.st0{fill:#010101;}
	.st1{fill:#030303;}
	.st2{fill:#4CB5AB;}
	.st3{fill:#FF5454;}
	</style>
	<g>
		<path d="M118.3,76c-7.1,7.2-14.5,14.1-21.3,21.5c-3.1,3.3-4.9,3-7.5-0.2c-2.3-2.8-5.2-5.3-7.9-7.8c-1.9-1.7-4.2-1.8-6.3-0.6
		c-1.6,0.9-2.7,2.5-2.7,4.6c0,3.4,17.3,20.9,20.7,20.9c2.5-0.1,4.1-1.7,5.7-3.3c9-9,18-18.1,27.1-27.1c2.8-2.8,5.2-5.9,1.7-9.5
		C124.2,70.8,121.1,73.2,118.3,76z" fill="#4299E1"/>
		<path d="M167,43.2c-0.1-4.5-3.2-5.8-7.2-5.8c-20.7-0.3-39.2-6.4-54.5-20.9c-2.9-2.7-5.9-2.7-8.7,0C81.3,31,62.8,37.1,42,37.3
		c-5.3,0.1-7.3,2.8-7.3,7.8c0.1,7.2,0,14.4,0,21.6c-0.2,0-0.4,0-0.6,0c0.4,7.8,0.7,15.6,1.3,23.4c3.1,39.9,23,67.2,60.8,81.1
		c2.3,0.8,4.5,1.9,7.1,0.9c28.1-10.3,49.5-27.4,58.3-57.2C168.8,91.4,167.7,67.3,167,43.2z M156.4,53.4c-0.3,5.1-0.1,10.3-0.1,15.4
		c-0.3,19.8-1,39.5-11,57.4c-9.5,17-24.5,27.2-42.2,34.2c-2.3,0.9-3.9,0-5.8-0.7c-31.3-12.2-47.8-35.4-50.7-68.6
		c-1.1-12.7-1-25.5-1-38.2c0-3.8,1.4-4.9,5-5.1c17.7-1,33.7-6.7,47.5-18c2.1-1.8,3.6-1.9,5.7-0.1c13.8,11.4,29.8,17.1,47.5,18.1
		C155.5,47.9,156.6,49.6,156.4,53.4z" fill="#2D3748"/>
	</g>
</svg>
